<svg class="border shadow-md" viewBox="0 0 910.5066666666668 512.16" style="width: 910.507px; height: 512.16px;" xmlns="http://www.w3.org/2000/svg" preserveAspectRatio="none"><rect class="bg" id="bg" x="0" y="0" width="910.5066666666668" height="512.16" fill="#e9eef2"/><g transform="translate(-320.09999999999997 192.06) scale(1)"><path d="M481.5,430.5Q448,541,324,535Q200,529,140,424.5Q80,320,144,222.5Q208,125,335,99.5Q462,74,488.5,197Q515,320,481.5,430.5Z" fill="none" stroke="#4A0D67" stroke-width="4"/></g><g transform="translate(590.4066666666668 -320.09999999999997) scale(1)"><path d="M487,418.5Q434,517,318,521Q202,525,164,422.5Q126,320,156.5,204.5Q187,89,311.5,104.5Q436,120,488,220Q540,320,487,418.5Z" fill="none" stroke="#4A0D67" stroke-width="4"/></g></svg>